<svg width="66" height="60" viewBox="0 0 66 60" fill="none" xmlns="http://www.w3.org/2000/svg">
<path d="M4.99233 8.55007C11.6488 1.78461 22.441 1.78461 29.0975 8.55007L31.508 11.0001L33.9185 8.55007C40.575 1.78461 51.3673 1.78461 58.0237 8.55007C64.6802 15.3155 64.6802 26.2845 58.0237 33.05L31.508 59.9999L4.99233 33.05C-1.66413 26.2845 -1.66413 15.3155 4.99233 8.55007Z" fill="#E97F95"/>
<path d="M8.15631 43.0919L6.04541 46.5565L5.80718 47.0713C5.78457 47.2714 5.64896 47.6732 5.72628 48.0478C5.80361 48.4223 5.99705 48.7399 6.08411 48.8519L6.20474 49.007C7.14226 50.213 8.85975 50.4208 10.0408 49.4714L27.6996 35.2749C28.1394 35.5572 28.7222 35.5446 29.1518 35.1993L65.0131 6.36944C65.5582 5.93121 65.6493 5.12476 65.2166 4.56818L62.605 1.20891C62.1723 0.652329 61.3796 0.556386 60.8345 0.994616L24.9732 29.8245C24.5436 30.1699 24.3971 30.7436 24.5657 31.2438L16.4785 37.7454L12.5033 44.0213C11.6897 45.3059 9.75089 44.9322 9.44495 43.4318L9.24009 42.4269C8.82195 42.4933 8.4285 42.7193 8.15631 43.0919Z" fill="#D83955"/>
<path d="M32.6366 40.8228C33.7178 40.1141 34.6411 39.1829 35.3471 38.0894C36.053 36.9958 36.526 35.764 36.7355 34.4734C36.9451 33.1827 36.8865 31.8617 36.5636 30.5954C36.2408 29.3291 35.6608 28.1456 34.8609 27.1211C34.0611 26.0965 33.0591 25.2536 31.9196 24.6466C30.78 24.0396 29.5281 23.682 28.2444 23.5968C26.9608 23.5115 25.6738 23.7005 24.4662 24.1517C23.2587 24.6028 22.1575 25.306 21.2334 26.2161L23.0223 28.0944C23.6885 27.4383 24.4824 26.9313 25.353 26.606C26.2235 26.2808 27.1514 26.1445 28.0769 26.206C29.0024 26.2674 29.9049 26.5253 30.7265 26.9629C31.548 27.4005 32.2704 28.0082 32.847 28.7468C33.4237 29.4855 33.8418 30.3387 34.0746 31.2516C34.3074 32.1646 34.3496 33.1169 34.1985 34.0475C34.0475 34.978 33.7065 35.866 33.1975 36.6544C32.6885 37.4428 32.0229 38.1141 31.2434 38.6251L32.6366 40.8228Z" fill="#E97F95"/>
<path d="M38.7301 35.2309C39.8114 34.5221 40.7347 33.591 41.4406 32.4974C42.1466 31.4038 42.6196 30.1721 42.8291 28.8814C43.0386 27.5907 42.9801 26.2697 42.6572 25.0034C42.3344 23.7371 41.7543 22.5536 40.9545 21.5291C40.1546 20.5045 39.1527 19.6616 38.0132 19.0546C36.8736 18.4477 35.6217 18.09 34.338 18.0048C33.0543 17.9195 31.7673 18.1086 30.5598 18.5597C29.3523 19.0108 28.2511 19.714 27.327 20.6241L29.1159 22.5024C29.7821 21.8463 30.576 21.3393 31.4466 21.0141C32.3171 20.6888 33.245 20.5526 34.1704 20.614C35.0959 20.6755 35.9985 20.9333 36.82 21.3709C37.6416 21.8085 38.3639 22.4162 38.9406 23.1548C39.5172 23.8935 39.9354 24.7467 40.1682 25.6597C40.4009 26.5726 40.4431 27.525 40.2921 28.4555C40.141 29.386 39.8 30.274 39.2911 31.0624C38.7821 31.8508 38.1164 32.5221 37.3369 33.0331L38.7301 35.2309Z" fill="#E97F95"/>
<path d="M50.9512 24.8026C52.0238 24.0939 52.9396 23.1627 53.6399 22.0692C54.3402 20.9756 54.8093 19.7438 55.0172 18.4531C55.225 17.1625 55.1669 15.8415 54.8467 14.5752C54.5264 13.3089 53.9511 12.1254 53.1577 11.1009C52.3643 10.0763 51.3704 9.23341 50.2401 8.62642C49.1097 8.01943 47.8679 7.6618 46.5946 7.57656C45.3212 7.49131 44.0446 7.68033 42.8468 8.13146C41.6491 8.58258 40.5567 9.28581 39.6401 10.1959L41.4145 12.0742C42.0754 11.4181 42.8629 10.9111 43.7264 10.5858C44.5899 10.2606 45.5103 10.1243 46.4283 10.1858C47.3463 10.2472 48.2416 10.5051 49.0566 10.9427C49.8715 11.3803 50.588 11.988 51.16 12.7266C51.732 13.4653 52.1468 14.3185 52.3777 15.2314C52.6086 16.1444 52.6505 17.0967 52.5006 18.0273C52.3508 18.9578 52.0125 19.8458 51.5077 20.6342C51.0028 21.4226 50.3425 22.0939 49.5693 22.6049L50.9512 24.8026Z" fill="#E97F95"/>
</svg>
