<svg width="781" height="488" viewBox="0 0 781 488" fill="none" xmlns="http://www.w3.org/2000/svg">
<path d="M67 0H701.5L781 121.5H0L67 0Z" fill="#DA5369"/>
<rect x="33" y="170" width="716" height="318" rx="25" fill="#DA5369"/>
<path d="M1 121H781V176C781 184.284 774.284 191 766 191H16C7.71574 191 1 184.284 1 176V121Z" fill="#D7425B"/>
<path d="M102.703 35.5201L672.77 34.4844L704.048 96.6306L74.0486 97.7752L102.703 35.5201Z" fill="#341D21"/>
<path d="M112.922 292.707H140.949V294.188H139.548C137.439 294.188 135.984 294.415 135.184 294.869C134.41 295.296 133.849 295.897 133.502 296.671C133.182 297.445 133.021 299.38 133.021 302.477V329.062C133.021 333.921 133.382 337.137 134.103 338.712C134.85 340.287 136.064 341.595 137.746 342.636C139.428 343.677 141.55 344.197 144.112 344.197C147.049 344.197 149.544 343.543 151.6 342.235C153.682 340.901 155.23 339.072 156.244 336.75C157.285 334.428 157.806 330.384 157.806 324.618V302.477C157.806 300.048 157.552 298.312 157.045 297.271C156.538 296.23 155.897 295.51 155.123 295.109C153.922 294.495 152.227 294.188 150.038 294.188V292.707H168.816V294.188H167.695C166.174 294.188 164.906 294.495 163.892 295.109C162.877 295.723 162.143 296.644 161.689 297.872C161.342 298.726 161.169 300.261 161.169 302.477V323.097C161.169 329.476 160.742 334.081 159.888 336.91C159.06 339.74 157.018 342.342 153.762 344.718C150.505 347.093 146.061 348.281 140.429 348.281C135.731 348.281 132.101 347.654 129.538 346.399C126.041 344.691 123.572 342.502 122.131 339.833C120.689 337.164 119.969 333.574 119.969 329.062V302.477C119.969 299.354 119.795 297.418 119.448 296.671C119.101 295.897 118.501 295.283 117.646 294.829C116.792 294.375 115.217 294.162 112.922 294.188V292.707ZM210.137 348.121L199.887 320.654L189.837 348.121H187.755L177.785 320.975C176.29 316.837 175.022 314.141 173.981 312.887C173.314 312.033 172.3 311.419 170.938 311.045V309.563H189.837V311.045C188.556 311.045 187.675 311.232 187.194 311.605C186.714 311.979 186.474 312.406 186.474 312.887C186.474 313.34 186.901 314.702 187.755 316.971L193.24 331.585L198.525 316.971L198.125 316.01C197.324 314.008 196.617 312.74 196.003 312.206C195.416 311.646 194.495 311.258 193.24 311.045V309.563H212.419V311.045C210.924 311.125 209.977 311.339 209.576 311.686C209.176 312.006 208.976 312.473 208.976 313.087C208.976 313.674 209.363 314.969 210.137 316.971L215.422 331.585L220.227 318.132C220.921 316.21 221.268 314.902 221.268 314.208C221.268 313.167 221.014 312.406 220.507 311.926C220 311.445 219.012 311.152 217.544 311.045V309.563H228.635V311.045C227.407 311.205 226.433 311.646 225.712 312.366C224.991 313.06 224.057 315.062 222.909 318.372L212.419 348.121H210.137ZM591.229 292.707V307.401H589.787C588.933 304.011 587.985 301.582 586.944 300.114C585.903 298.619 584.475 297.432 582.66 296.551C581.646 296.07 579.871 295.83 577.335 295.83H573.291V337.711C573.291 340.487 573.438 342.222 573.731 342.916C574.052 343.61 574.652 344.224 575.533 344.758C576.441 345.265 577.669 345.519 579.217 345.519H581.019V347H552.591V345.519H554.393C555.967 345.519 557.235 345.238 558.196 344.678C558.89 344.304 559.438 343.663 559.838 342.756C560.132 342.115 560.278 340.434 560.278 337.711V295.83H556.354C552.698 295.83 550.042 296.604 548.387 298.152C546.064 300.314 544.596 303.397 543.982 307.401H542.461V292.707H591.229ZM621.138 326.94H600.598C600.838 331.905 602.159 335.829 604.562 338.712C606.403 340.927 608.619 342.035 611.208 342.035C612.81 342.035 614.264 341.595 615.572 340.714C616.88 339.806 618.282 338.191 619.776 335.869L621.138 336.75C619.109 340.887 616.867 343.824 614.411 345.559C611.955 347.267 609.113 348.121 605.883 348.121C600.331 348.121 596.127 345.986 593.271 341.715C590.975 338.271 589.827 334.001 589.827 328.902C589.827 322.656 591.509 317.691 594.872 314.008C598.262 310.298 602.226 308.442 606.764 308.442C610.554 308.442 613.837 310.004 616.613 313.127C619.416 316.223 620.924 320.828 621.138 326.94ZM611.288 324.258C611.288 319.96 611.048 317.011 610.567 315.409C610.114 313.808 609.393 312.593 608.405 311.766C607.845 311.285 607.097 311.045 606.163 311.045C604.775 311.045 603.641 311.726 602.76 313.087C601.185 315.463 600.397 318.719 600.397 322.856V324.258H611.288ZM640.517 292.707V339.232C640.517 341.875 640.824 343.57 641.438 344.317C642.051 345.038 643.253 345.452 645.041 345.559V347H624.821V345.559C626.476 345.505 627.704 345.025 628.505 344.117C629.039 343.503 629.306 341.875 629.306 339.232V300.475C629.306 297.859 628.999 296.19 628.385 295.47C627.771 294.722 626.583 294.295 624.821 294.188V292.707H640.517ZM663.539 295.87V309.563H672.428V313.527H663.539V336.63C663.539 338.792 663.632 340.193 663.819 340.834C664.033 341.448 664.393 341.955 664.9 342.355C665.408 342.729 665.875 342.916 666.302 342.916C668.037 342.916 669.678 341.595 671.227 338.952L672.428 339.833C670.266 344.958 666.756 347.521 661.897 347.521C659.522 347.521 657.507 346.867 655.852 345.559C654.223 344.224 653.182 342.743 652.729 341.114C652.462 340.207 652.328 337.751 652.328 333.747V313.527H647.443V312.126C650.807 309.75 653.663 307.255 656.012 304.639C658.387 302.023 660.456 299.1 662.218 295.87H663.539Z" fill="black"/>
<path d="M247.053 347L247.533 345.519C250.149 345.519 252.124 344.985 253.459 343.917C254.82 342.823 255.941 340.794 256.822 337.831L266.672 303.598C267.312 301.355 267.633 299.514 267.633 298.072C267.633 296.844 267.259 295.937 266.512 295.35C265.764 294.762 263.856 294.375 260.786 294.188L261.267 292.707H279.845C289.641 292.707 296.701 294.696 301.025 298.673C305.376 302.623 307.552 308.175 307.552 315.329C307.552 320.374 306.551 324.605 304.549 328.021C300.625 334.695 295.967 339.526 290.575 342.516C285.183 345.505 278.257 347 269.795 347H247.053ZM280.966 295.91L269.034 337.07C268.474 338.965 268.193 340.327 268.193 341.154C268.193 341.902 268.5 342.502 269.114 342.956C269.915 343.57 271.103 343.877 272.678 343.877C276.441 343.877 279.805 342.702 282.768 340.354C286.558 337.337 289.441 333.28 291.416 328.182C293.418 323.083 294.419 318.025 294.419 313.007C294.419 309.377 293.845 306.214 292.697 303.518C291.549 300.822 289.774 298.766 287.372 297.352C285.69 296.391 283.555 295.91 280.966 295.91ZM336.22 309.884C338.328 309.884 340.304 310.378 342.146 311.365C344.014 312.326 345.415 313.674 346.35 315.409C347.311 317.144 347.791 319.066 347.791 321.175C347.791 325.499 346.576 329.823 344.147 334.147C341.745 338.472 338.569 341.888 334.618 344.397C330.668 346.88 326.69 348.121 322.687 348.121C319.056 348.121 316.24 347.04 314.238 344.878C312.263 342.716 311.275 340.073 311.275 336.95C311.275 333.24 312.009 329.77 313.478 326.54C314.972 323.284 316.854 320.454 319.123 318.052C321.419 315.623 324.048 313.661 327.011 312.166C329.974 310.645 333.043 309.884 336.22 309.884ZM334.578 312.006C333.163 312.006 331.989 312.42 331.055 313.247C329.186 314.929 327.077 318.866 324.729 325.059C322.38 331.225 321.205 336.79 321.205 341.755C321.205 342.983 321.579 343.997 322.326 344.798C323.074 345.599 323.954 345.999 324.969 345.999C326.01 345.999 326.931 345.679 327.731 345.038C328.906 344.077 330.347 341.928 332.056 338.592C333.764 335.229 335.165 331.532 336.26 327.501C337.354 323.444 337.901 319.733 337.901 316.37C337.901 314.982 337.568 313.914 336.9 313.167C336.233 312.393 335.459 312.006 334.578 312.006ZM372.175 309.884L367.21 327.061C370.547 322.042 373.042 318.612 374.697 316.771C377.126 314.101 379.222 312.286 380.983 311.325C382.745 310.364 384.4 309.884 385.948 309.884C387.336 309.884 388.524 310.404 389.512 311.445C390.499 312.46 390.993 313.794 390.993 315.449C390.993 316.944 390.673 318.759 390.032 320.895L384.907 337.991C384.48 339.486 384.267 340.46 384.267 340.914C384.267 341.181 384.36 341.421 384.547 341.635C384.76 341.848 384.974 341.955 385.188 341.955C385.454 341.955 385.735 341.848 386.028 341.635C386.963 340.861 387.91 339.766 388.871 338.352C389.111 337.978 389.498 337.417 390.032 336.67L391.554 337.591C387.63 344.184 383.506 347.48 379.182 347.48C377.527 347.48 376.232 347.053 375.298 346.199C374.364 345.345 373.896 344.277 373.896 342.996C373.896 341.875 374.217 340.207 374.857 337.991L379.862 320.895C380.209 319.773 380.383 318.946 380.383 318.412C380.383 318.118 380.263 317.865 380.022 317.651C379.782 317.411 379.502 317.291 379.182 317.291C378.167 317.291 376.939 317.985 375.498 319.373C371.814 322.896 368.251 328.142 364.808 335.108L361.524 347H351.314L358.802 321.295C359.522 318.759 359.883 316.957 359.883 315.89C359.883 315.436 359.776 315.062 359.562 314.769C359.349 314.448 359.002 314.208 358.521 314.048C358.041 313.861 357.133 313.768 355.799 313.768L356.239 312.246L369.732 309.884H372.175ZM435.196 310.444L427.429 337.07L426.628 340.313C426.548 340.714 426.508 341.007 426.508 341.194C426.508 341.515 426.615 341.795 426.828 342.035C427.068 342.275 427.309 342.396 427.549 342.396C428.109 342.396 428.883 341.968 429.871 341.114C430.271 340.767 431.232 339.539 432.754 337.431L434.155 338.151C432.26 341.621 430.231 344.157 428.069 345.759C425.934 347.334 423.625 348.121 421.143 348.121C419.621 348.121 418.46 347.734 417.659 346.96C416.858 346.159 416.458 345.158 416.458 343.957C416.458 342.916 416.885 340.981 417.739 338.151L418.7 334.908C415.604 340.22 412.628 343.984 409.771 346.199C408.117 347.48 406.355 348.121 404.486 348.121C402.031 348.121 400.256 347.12 399.161 345.118C398.067 343.09 397.52 340.807 397.52 338.271C397.52 334.508 398.667 330.197 400.963 325.339C403.258 320.454 406.275 316.53 410.012 313.567C413.081 311.112 415.964 309.884 418.66 309.884C420.155 309.884 421.356 310.324 422.264 311.205C423.171 312.059 423.839 313.634 424.266 315.93L425.707 311.005L435.196 310.444ZM422.384 318.052C422.384 315.89 422.05 314.328 421.383 313.367C420.902 312.7 420.248 312.366 419.421 312.366C418.593 312.366 417.739 312.767 416.858 313.567C415.07 315.222 413.135 318.586 411.053 323.657C408.997 328.702 407.97 333.066 407.97 336.75C407.97 338.165 408.197 339.192 408.65 339.833C409.131 340.447 409.651 340.754 410.212 340.754C411.413 340.754 412.628 340.06 413.855 338.672C415.617 336.697 417.205 334.281 418.62 331.425C421.129 326.407 422.384 321.949 422.384 318.052ZM460.421 300.114L457.218 311.005H462.463L461.062 315.609H455.896L449.21 338.832C448.783 340.273 448.569 341.368 448.569 342.115C448.569 342.462 448.689 342.769 448.93 343.036C449.17 343.276 449.437 343.396 449.73 343.396C450.184 343.396 450.651 343.21 451.132 342.836C452.36 341.902 453.788 340.273 455.416 337.951L456.817 338.832C454.976 342.035 452.947 344.384 450.731 345.879C448.516 347.374 446.34 348.121 444.205 348.121C442.39 348.121 440.975 347.667 439.961 346.76C438.973 345.826 438.479 344.651 438.479 343.236C438.479 341.688 438.826 339.7 439.521 337.271L445.847 315.609H440.401L441.202 312.646C444.619 311.392 447.502 309.924 449.851 308.242C452.2 306.561 455.029 303.851 458.339 300.114H460.421ZM478.158 291.466C479.813 291.466 481.201 292.04 482.322 293.188C483.47 294.335 484.044 295.723 484.044 297.352C484.044 298.98 483.47 300.368 482.322 301.516C481.174 302.663 479.786 303.237 478.158 303.237C476.557 303.237 475.182 302.663 474.034 301.516C472.886 300.368 472.312 298.98 472.312 297.352C472.312 295.723 472.873 294.335 473.994 293.188C475.142 292.04 476.53 291.466 478.158 291.466ZM480.641 309.884L472.433 338.352C471.979 339.98 471.752 341.048 471.752 341.555C471.752 341.848 471.872 342.129 472.112 342.396C472.353 342.636 472.606 342.756 472.873 342.756C473.327 342.756 473.781 342.556 474.234 342.155C475.436 341.168 476.877 339.379 478.559 336.79L479.92 337.591C475.889 344.611 471.605 348.121 467.067 348.121C465.332 348.121 463.944 347.641 462.903 346.68C461.889 345.692 461.382 344.451 461.382 342.956C461.382 341.968 461.609 340.714 462.062 339.192L467.628 320.054C468.162 318.212 468.429 316.824 468.429 315.89C468.429 315.302 468.175 314.782 467.668 314.328C467.161 313.874 466.467 313.647 465.586 313.647C465.186 313.647 464.705 313.661 464.145 313.688L464.665 312.086L478.238 309.884H480.641ZM495.375 331.985C495.135 333.72 495.015 335.148 495.015 336.27C495.015 338.271 495.589 339.873 496.736 341.074C497.911 342.275 499.472 342.876 501.421 342.876C503.289 342.876 505.158 342.422 507.026 341.515C508.922 340.607 511.11 339.019 513.593 336.75L514.794 337.831C511.724 341.541 508.735 344.184 505.825 345.759C502.916 347.334 499.699 348.121 496.176 348.121C491.718 348.121 488.635 347.053 486.927 344.918C485.218 342.783 484.364 340.313 484.364 337.511C484.364 333.133 485.632 328.756 488.168 324.378C490.73 320 494.201 316.49 498.578 313.848C502.982 311.205 507.4 309.884 511.831 309.884C514.073 309.884 515.768 310.418 516.916 311.485C518.064 312.553 518.638 313.901 518.638 315.529C518.638 317.478 518.077 319.373 516.956 321.215C515.408 323.724 513.459 325.753 511.11 327.301C508.761 328.822 506.132 329.983 503.223 330.784C501.274 331.318 498.658 331.718 495.375 331.985ZM495.735 329.903C498.084 329.556 499.899 329.089 501.181 328.502C502.489 327.888 503.757 326.927 504.984 325.619C506.239 324.285 507.32 322.616 508.228 320.614C509.135 318.586 509.589 316.69 509.589 314.929C509.589 314.181 509.375 313.594 508.948 313.167C508.548 312.74 508.027 312.526 507.387 312.526C506.105 312.526 504.664 313.421 503.062 315.209C500.126 318.465 497.684 323.364 495.735 329.903Z" fill="#FAF8F8"/>
</svg>
